<svg xmlns="http://www.w3.org/2000/svg" xmlns:xlink="http://www.w3.org/1999/xlink" xmlns:inkscape="http://www.inkscape.org/namespaces/inkscape" version="1.1" width="61.4341" height="61.4346" viewBox="0 0 61.4341 61.4346">
<defs>
<clipPath id="clip_1">
<path transform="matrix(1,0,0,-1,0,61.4346)" d="M0 61.435H61.434V0H0Z"/>
</clipPath>
</defs>
<g inkscape:groupmode="layer" inkscape:label="Layer 1">
<g clip-path="url(#clip_1)">
<circle cx="30.71705" cy="30.71730" r="30.71705" fill="#ffffff"/>
<path transform="matrix(1,0,0,-1,30.7158,1.4345017)" d="M0 0C-16.146 0-29.281-13.136-29.281-29.281-29.281-45.429-16.146-58.564 0-58.564 16.147-58.564 29.284-45.429 29.284-29.281 29.284-13.136 16.147 0 0 0M0-60C-16.937-60-30.716-46.22-30.716-29.281-30.716-12.344-16.937 1.435 0 1.435 16.938 1.435 30.719-12.344 30.719-29.281 30.719-46.22 16.938-60 0-60" fill="#c41230"/>
<path transform="matrix(1,0,0,-1,30.7158,9.070301)" d="M0 0C-11.935 0-21.645-9.71-21.645-21.646-21.645-33.582-11.935-43.292 0-43.292 11.937-43.292 21.647-33.582 21.647-21.646 21.647-9.71 11.937 0 0 0M0-44.718C-12.721-44.718-23.069-34.368-23.069-21.646-23.069-8.924-12.721 1.425 0 1.425 12.723 1.425 23.072-8.924 23.072-21.646 23.072-34.368 12.723-44.718 0-44.718" fill="#c41230"/>
<path transform="matrix(1,0,0,-1,17.4789,16.6059)" d="M0 0-.002-18.264C-.002-27.473 11.287-33.167 13.241-34.084 15.192-33.154 26.457-27.401 26.457-18.612L26.454 .003ZM13.247-35.656 12.961-35.533C12.373-35.281-1.437-29.23-1.437-18.264L-1.435 1.435 27.888 1.437 27.891-18.612C27.891-29.125 14.118-35.274 13.531-35.531Z" fill="#c41230"/>
<path transform="matrix(1,0,0,-1,21.4233,18.745102)" d="M0 0C-.001-1.817-.001-4.058 .004-4.229 .015-4.367 .203-4.638 .704-4.973 1.389-5.432 2.342-6.008 2.85-6.31 3.383-6.012 4.4-5.433 5.085-4.974 5.272-4.848 5.708-4.53 5.715-4.275 5.723-4.056 5.721-1.814 5.718 0ZM2.825-7.96 2.475-7.756C2.412-7.719 .912-6.839-.094-6.165-.944-5.597-1.38-4.994-1.427-4.324-1.435-4.21-1.437-2.517-1.434 .718V1.435H7.149L7.151 .719C7.158-2.518 7.157-4.214 7.148-4.321 7.129-5.005 6.715-5.609 5.883-6.166 4.869-6.846 3.249-7.729 3.181-7.767Z" fill="#c41230"/>
<path transform="matrix(1,0,0,-1,34.687,18.7109)" d="M0 0C-.002-1.814-.001-4.052 .004-4.227 .015-4.366 .204-4.638 .706-4.975 1.39-5.433 2.341-6.008 2.848-6.31 3.381-6.013 4.4-5.433 5.085-4.974 5.272-4.849 5.708-4.53 5.714-4.277 5.722-4.058 5.72-1.814 5.717 0ZM2.822-7.96 2.473-7.755C2.41-7.718 .912-6.84-.093-6.166-.944-5.596-1.38-4.993-1.427-4.325-1.436-4.215-1.438-2.519-1.434 .718L-1.433 1.435H7.149L7.15 .719C7.158-2.519 7.157-4.215 7.148-4.322 7.131-5.001 6.717-5.607 5.884-6.166 4.868-6.847 3.247-7.729 3.178-7.767Z" fill="#c41230"/>
<path transform="matrix(1,0,0,-1,0,61.4346)" d="M44.854 32.802H16.154V34.221998H44.854Z" fill="#c41230"/>
<path transform="matrix(1,0,0,-1,29.2656,42.4599)" d="M0 0C.729-.018 1.167-.303 1.425-.569 1.696-.301 2.139 .003 2.885 0 3.729 0 4.361-.058 5.03-.118 5.687-.179 6.367-.24 7.364-.263 7.774-.272 8.149-.271 8.447-.265L8.445 10.391C8.343 10.391 8.252 10.39 8.148 10.39 7.78 10.39 7.349 10.393 6.833 10.404 6.287 10.417 5.687 10.482 4.992 10.556 4.615 10.597 4.209 10.64 3.773 10.679 3.052 10.758 2.399 10.629 2.393 10.628 2.019 10.541 1.903 10.387 1.898 10.38L1.477 10.605 1.036 10.351V10.35C1.036 10.35 1.036 10.35 1.036 10.35 1.033 10.35 .879 10.537 .472 10.633 .47 10.633-.176 10.758-.874 10.681-1.324 10.64-1.728 10.597-2.104 10.557-2.8 10.482-3.401 10.417-3.951 10.404-4.603 10.39-5.121 10.39-5.543 10.391H-5.562L-5.564-.265C-5.266-.271-4.892-.273-4.48-.263-3.483-.24-2.803-.179-2.146-.118-1.478-.058-.846 0 0 0M1.413-2.221C.929-2.221 .653-1.881 .505-1.697 .342-1.496 .259-1.436 0-1.435-.78-1.435-1.354-1.487-2.016-1.547-2.666-1.606-3.401-1.674-4.447-1.697-5.486-1.721-6.287-1.678-6.321-1.676L-6.999-1.638-6.997 11.805-6.295 11.821C-6.08 11.826-5.834 11.827-5.541 11.825-5.125 11.825-4.621 11.824-3.985 11.839-3.495 11.851-2.921 11.912-2.256 11.983-1.873 12.024-1.461 12.068-1.018 12.108-.094 12.213 .748 12.041 .783 12.033 1.04 11.973 1.256 11.891 1.439 11.799 1.616 11.889 1.83 11.97 2.084 12.029 2.136 12.041 2.974 12.213 3.917 12.106 4.346 12.068 4.76 12.024 5.145 11.983 5.808 11.912 6.38 11.851 6.867 11.839 7.504 11.824 8.011 11.826 8.424 11.825 8.715 11.827 8.962 11.826 9.178 11.821L9.88 11.805 9.882-1.638 9.204-1.676C9.17-1.678 8.369-1.721 7.331-1.697 6.285-1.674 5.549-1.606 4.899-1.547 4.226-1.486 3.646-1.429 2.844-1.435 2.563-1.436 2.485-1.524 2.314-1.721 2.151-1.908 1.879-2.221 1.413-2.221" fill="#c41230"/>
<path transform="matrix(1,0,0,-1,0,61.4346)" d="M27.804 40.127H20.709002V41.32H27.804Z" fill="#c41230"/>
<path transform="matrix(1,0,0,-1,0,61.4346)" d="M31.255 9.834H30.061999V33.968004H31.255Z" fill="#c41230"/>
<path transform="matrix(1,0,0,-1,40.5663,22.704602)" d="M0 0-3.152 2.101-6.044 .013-6.743 .98-3.18 3.554 .662 .993Z" fill="#c41230"/>
<path transform="matrix(1,0,0,-1,36.3647,34.228)" d="M0 0-1.807 .049C-2.094 .055-2.424 .09-2.805 .131L-3.415 .194C-3.532 .207-3.637 .208-3.732 .204L-3.759 .958C-3.628 .964-3.487 .96-3.339 .944L-2.724 .881C-2.367 .843-2.059 .809-1.788 .803L.018 .754Z" fill="#c41230"/>
<path transform="matrix(1,0,0,-1,36.3661,36.5263)" d="M0 0-1.806 .044C-2.092 .051-2.417 .085-2.791 .125-2.985 .146-3.193 .168-3.416 .189-3.532 .201-3.637 .207-3.734 .201L-3.76 .955C-3.634 .959-3.49 .955-3.342 .939-3.12 .919-2.908 .896-2.711 .875-2.36 .838-2.056 .805-1.789 .798L.015 .754Z" fill="#c41230"/>
<path transform="matrix(1,0,0,-1,36.3676,38.83)" d="M0 0C-.146 .002-.485 .012-.857 .021L-1.809 .047C-2.087 .052-2.407 .086-2.775 .125-2.974 .146-3.187 .169-3.417 .188-3.533 .202-3.641 .207-3.735 .201L-3.762 .955C-3.635 .96-3.491 .955-3.344 .939-3.116 .92-2.898 .896-2.695 .875-2.352 .839-2.055 .806-1.793 .801L-.836 .776C-.468 .766-.132 .757 .012 .754Z" fill="#c41230"/>
<path transform="matrix(1,0,0,-1,36.3657,41.1338)" d="M0 0-1.808 .047C-2.094 .054-2.421 .089-2.8 .129L-3.416 .191C-3.532 .204-3.637 .209-3.733 .204L-3.76 .958C-3.633 .961-3.489 .957-3.342 .942-3.123 .922-2.915 .899-2.72 .879-2.365 .841-2.058 .808-1.789 .801L.016 .754Z" fill="#c41230"/>
<path transform="matrix(1,0,0,-1,25.0136,34.2085)" d="M0 0-.016 .754C.259 .76 1.221 .785 1.789 .801 2.065 .806 2.377 .84 2.739 .879L3.348 .941C3.476 .957 3.613 .96 3.734 .958L3.72 .204C3.631 .203 3.529 .203 3.426 .191L2.819 .129C2.432 .087 2.099 .052 1.806 .047 1.24 .031 .276 .006 0 0" fill="#c41230"/>
<path transform="matrix(1,0,0,-1,25.0146,36.511705)" d="M0 0-.018 .754 1.789 .802C2.061 .808 2.37 .842 2.728 .881L3.346 .944C3.485 .956 3.618 .96 3.74 .956L3.712 .202C3.617 .208 3.517 .202 3.414 .193L2.81 .131C2.427 .089 2.096 .054 1.807 .048Z" fill="#c41230"/>
<path transform="matrix(1,0,0,-1,25.0112,38.8095)" d="M0 0-.011 .754C.264 .758 1.224 .784 1.791 .801 2.06 .804 2.359 .837 2.704 .873 2.905 .895 3.12 .917 3.352 .937 3.48 .952 3.617 .958 3.738 .952L3.721 .198C3.63 .199 3.53 .198 3.427 .187 3.191 .166 2.98 .144 2.784 .123 2.412 .084 2.09 .05 1.807 .047 1.242 .03 .276 .004 0 0" fill="#c41230"/>
<path transform="matrix(1,0,0,-1,25.0112,41.116205)" d="M0 0-.011 .754C.208 .758 .861 .775 1.404 .791L1.792 .802C2.064 .808 2.374 .842 2.732 .881L3.35 .944C3.477 .959 3.61 .962 3.734 .959L3.721 .205C3.628 .205 3.528 .206 3.428 .194L2.813 .131C2.431 .089 2.1 .054 1.811 .048L1.425 .037C.878 .021 .22 .003 0 0" fill="#c41230"/>
<path transform="matrix(1,0,0,-1,0,61.4346)" d="M20.859 28.868H22.421V27.152H20.859Z" fill="#c41230"/>
<path transform="matrix(1,0,0,-1,0,61.4346)" d="M20.859 24.9H22.505V23.182999H20.859Z" fill="#c41230"/>
<path transform="matrix(1,0,0,-1,0,61.4346)" d="M20.859 21.351H22.421V19.640999H20.859Z" fill="#c41230"/>
<path transform="matrix(1,0,0,-1,0,61.4346)" d="M38.842 28.528H40.404V26.816H38.842Z" fill="#c41230"/>
<path transform="matrix(1,0,0,-1,0,61.4346)" d="M38.842 24.563H40.488V22.847H38.842Z" fill="#c41230"/>
<path transform="matrix(1,0,0,-1,0,61.4346)" d="M38.842 21.015H40.404V19.300999H38.842Z" fill="#c41230"/>
<path transform="matrix(1,0,0,-1,6.6049,27.7641)" d="M0 0C.053-.303 .092-.627 .072-.937-.011-2.255-.737-3.129-2.133-3.041-3.547-2.952-4.285-2.05-4.2-.669-4.182-.399-4.106-.048-3.971 .243L-3.275 .141C-3.473-.158-3.532-.435-3.55-.727-3.603-1.566-2.986-2.132-2.138-2.186-1.297-2.239-.634-1.763-.58-.896-.559-.575-.607-.191-.695 .007Z" fill="#c41230"/>
<path transform="matrix(1,0,0,-1,6.8618,24.249)" d="M0 0C.229 .804-.411 1.309-1.129 1.512-1.832 1.712-2.641 1.595-2.863 .812-3.085 .032-2.458-.493-1.756-.691-1.039-.896-.229-.805 0 0M-3.488 .992C-3.14 2.224-2.1 2.674-.896 2.333 .307 1.993 .979 1.062 .626-.178 .269-1.437-.769-1.861-1.989-1.515-3.21-1.167-3.844-.258-3.488 .992" fill="#c41230"/>
<path transform="matrix(1,0,0,-1,6.9599,19.0859)" d="M0 0 .127 .238C.317 .593 .482 1.03 .026 1.271-.414 1.506-.664 1.122-.857 .762L-.983 .524ZM-1.942 .108-1.527 .887C-1.117 1.661-.651 2.599 .365 2.058 .793 1.83 .998 1.355 .816 .864L.826 .857C.946 1.046 1.206 1.053 1.407 1.039L3.142 .857 2.714 .052 1.343 .226C1.015 .268 .862 .231 .7-.072L.577-.306 2.093-1.114 1.708-1.837Z" fill="#c41230"/>
<path transform="matrix(1,0,0,-1,7.8129,14.2514)" d="M0 0 .643 .773 4.017-.004 4.024 .005 1.643 1.979 2.142 2.583 5.327-.059 4.689-.827 1.311-.054 1.304-.062 3.686-2.039 3.185-2.64Z" fill="#c41230"/>
<path transform="matrix(1,0,0,-1,11.9579,9.756802)" d="M0 0 1.866 1.519 2.278 1.014 1.044 .012 1.688-.78 2.818 .14 3.229-.365 2.1-1.286 2.834-2.187 4.076-1.176 4.487-1.681 2.611-3.209Z" fill="#c41230"/>
<path transform="matrix(1,0,0,-1,16.017,6.7733995)" d="M0 0 .714 .403 2.423-2.633 3.803-1.857 4.123-2.426 2.028-3.604Z" fill="#c41230"/>
<path transform="matrix(1,0,0,-1,20.2187,4.6660006)" d="M0 0 .77 .279 1.955-2.997 3.444-2.459 3.668-3.071 1.408-3.89Z" fill="#c41230"/>
<path transform="matrix(1,0,0,-1,26.8139,2.868599)" d="M0 0 .817 .068 1.012-2.314C1.07-3.015 1.331-3.46 1.956-3.408 2.578-3.356 2.761-2.876 2.702-2.175L2.504 .209 3.321 .276 3.539-2.359C3.631-3.465 3.051-3.97 2.008-4.058 .967-4.144 .31-3.74 .218-2.636Z" fill="#c41230"/>
<path transform="matrix(1,0,0,-1,32.9438,2.6595994)" d="M0 0 .997-.135 2.124-3.41 2.136-3.412 2.548-.344 3.326-.45 2.772-4.549 1.782-4.416 .649-1.141 .637-1.14 .225-4.205-.552-4.101Z" fill="#c41230"/>
<path transform="matrix(1,0,0,-1,38.8076,3.7831994)" d="M0 0 .781-.245-.458-4.193-1.238-3.947Z" fill="#c41230"/>
<path transform="matrix(1,0,0,-1,41.7177,4.762699)" d="M0 0 .783-.397 .251-3.768 .262-3.772 2.651-1.341 3.376-1.707 .283-4.78-.613-4.327Z" fill="#c41230"/>
<path transform="matrix(1,0,0,-1,47.081,7.8148996)" d="M0 0 1.897-1.485 1.497-1.997 .245-1.019-.383-1.822 .762-2.719 .361-3.233-.785-2.336-1.501-3.251-.238-4.238-.64-4.752-2.546-3.261Z" fill="#c41230"/>
<path transform="matrix(1,0,0,-1,50.1025,12.868599)" d="M0 0 .177-.203C.442-.505 .793-.813 1.18-.473 1.555-.146 1.284 .225 1.015 .532L.837 .735ZM.788 1.78 1.37 1.118C1.949 .458 2.661-.309 1.797-1.069 1.432-1.389 .916-1.412 .52-1.07L.51-1.076C.644-1.255 .56-1.5 .476-1.682L-.31-3.242-.911-2.557-.264-1.335C-.109-1.043-.088-.887-.317-.629L-.489-.431-1.782-1.563-2.323-.948Z" fill="#c41230"/>
<path transform="matrix(1,0,0,-1,54.7529,17.6489)" d="M0 0C-.035 .279-.124 .559-.27 .805-.413 1.047-.703 1.294-1.092 1.066-1.71 .701-.538-.685-1.732-1.391-2.512-1.853-3.169-1.418-3.588-.71-3.814-.327-3.865-.126-3.984 .271L-3.303 .588C-3.292 .267-3.214-.061-3.052-.337-2.893-.605-2.545-.88-2.224-.688-1.543-.288-2.736 1.084-1.557 1.782-.762 2.252-.11 1.815 .256 1.197 .434 .896 .56 .59 .625 .283Z" fill="#c41230"/>
<path transform="matrix(1,0,0,-1,56.5654,19.708)" d="M0 0 .311-.758-3.521-2.321-3.83-1.564Z" fill="#c41230"/>
<path transform="matrix(1,0,0,-1,57.2773,23.8037)" d="M0 0-.28 1.135 .354 1.291 1.108-1.776 .476-1.931 .196-.795-3.188-1.628-3.384-.833Z" fill="#c41230"/>
<path transform="matrix(1,0,0,-1,56.2851,29.134202)" d="M0 0 2.415 1.626 2.469 .67 .787-.389 2.577-1.274 2.624-2.14 .046-.818-1.589-.908-1.634-.091Z" fill="#c41230"/>
<path transform="matrix(1,0,0,-1,7.248,36.2866)" d="M0 0 .634-2.201 .008-2.383-.399-.974-1.377-1.257-.992-2.596-1.618-2.778-2.003-1.437-3.748-1.941-3.977-1.146Z" fill="#c41230"/>
<path transform="matrix(1,0,0,-1,5.9311,42.9599)" d="M0 0C.373-.761 1.185-.71 1.855-.379 2.511-.059 3.032 .574 2.669 1.311 2.309 2.046 1.49 2.019 .835 1.699 .164 1.369-.373 .758 0 0M3.255 1.6C3.827 .437 3.36-.603 2.235-1.153 1.114-1.706-.008-1.46-.585-.287-1.169 .898-.682 1.916 .456 2.474 1.595 3.032 2.676 2.774 3.255 1.6" fill="#c41230"/>
<path transform="matrix(1,0,0,-1,10.9462,44.617204)" d="M0 0 .516-.646-1.354-2.131C-1.907-2.568-2.129-3.033-1.735-3.527-1.343-4.024-.841-3.913-.29-3.473L1.581-1.986 2.096-2.635 .025-4.278C-.841-4.968-1.588-4.763-2.248-3.937-2.905-3.107-2.937-2.33-2.07-1.641Z" fill="#c41230"/>
<path transform="matrix(1,0,0,-1,14.3408,48.577104)" d="M0 0 .788-.643 .044-4.031 .053-4.037 2.012-1.645 2.626-2.145 .005-5.347-.777-4.708-.039-1.312-.049-1.307-2.007-3.699-2.62-3.199Z" fill="#c41230"/>
<path transform="matrix(1,0,0,-1,17.7109,55.2265)" d="M0 0 .412-.207C1.03-.516 1.857-.355 2.262 .451 2.666 1.254 2.303 2.016 1.685 2.327L1.272 2.534ZM.826 3.487 1.835 2.981C2.963 2.413 3.771 1.531 3.032 .062 2.296-1.404 1.105-1.283-.023-.715L-1.032-.211Z" fill="#c41230"/>
<path transform="matrix(1,0,0,-1,23.3212,53.867204)" d="M0 0 2.352-.629 2.183-1.258 .631-.844 .369-1.828 1.791-2.207 1.623-2.836 .2-2.457-.098-3.58 1.466-3.998 1.299-4.628-1.065-3.998Z" fill="#c41230"/>
<path transform="matrix(1,0,0,-1,28.1186,58.348604)" d="M0 0 .461-.025C1.152-.064 1.847 .413 1.899 1.313 1.949 2.212 1.312 2.765 .623 2.804L.164 2.829ZM-.626 3.528 .5 3.464C1.762 3.394 2.853 2.903 2.76 1.265 2.666-.375 1.527-.738 .265-.668L-.86-.604Z" fill="#c41230"/>
<path transform="matrix(1,0,0,-1,35.7011,55.2382)" d="M0 0-.012-.002-.236-1.795 .941-1.543ZM-.619 .717 .292 .912 2.746-2.791 1.849-2.985 1.305-2.131-.331-2.484-.484-3.485-1.321-3.665Z" fill="#c41230"/>
<path transform="matrix(1,0,0,-1,39.3681,56.785104)" d="M0 0 .777 .281 1.06-.498 .283-.779Z" fill="#c41230"/>
<path transform="matrix(1,0,0,-1,42.8076,55.535104)" d="M0 0 .405 .217C1.013 .549 1.353 1.318 .924 2.111 .495 2.905-.338 3.04-.946 2.708L-1.351 2.489ZM-2.389 2.669-1.397 3.206C-.285 3.812 .9 3.966 1.683 2.522 2.465 1.078 1.686 .172 .575-.43L-.417-.967Z" fill="#c41230"/>
<path transform="matrix(1,0,0,-1,45.6894,53.6328)" d="M0 0 .681 .474 1.153-.209 .475-.682Z" fill="#c41230"/>
<path transform="matrix(1,0,0,-1,47.3954,47.972604)" d="M0 0 .521 .514 3.427-2.433 2.838-3.015 .595-.741 .497-1.634-.177-1.54Z" fill="#c41230"/>
<path transform="matrix(1,0,0,-1,52.8105,47.1875)" d="M0 0C.198 .266 .184 .598-.092 .803-.42 1.045-.785 .881-1.08 .674-1.141 .352-1.125 .055-.845-.154-.566-.359-.196-.266 0 0M-1.514 1.191C-1.443 1.426-1.518 1.766-1.723 1.916-1.97 2.102-2.258 2.07-2.443 1.818-2.622 1.576-2.668 1.236-2.402 1.039-2.114 .828-1.768 1.027-1.514 1.191M-1.71 .398C-2.105 .176-2.542 .16-2.891 .416-3.485 .857-3.434 1.516-2.988 2.119-2.556 2.703-1.924 3.051-1.367 2.641-1.065 2.416-.854 1.975-.978 1.5L-.973 1.496C-.444 1.781-.01 1.77 .371 1.488 1.044 .992 .982 .289 .496-.367 .019-1.012-.649-1.329-1.324-.826-1.697-.553-1.8-.152-1.701 .391Z" fill="#c41230"/>
<path transform="matrix(1,0,0,-1,54.4755,43.165)" d="M0 0C.349-.174 .73-.18 .911 .186 1.084 .527 .821 .838 .492 1.002 .131 1.182-.275 1.201-.453 .846-.633 .488-.373 .186 0 0M-1.162 2.399C-1.344 2.245-1.508 2.08-1.632 1.83-1.949 1.193-1.465 .678-.924 .379L-.907 .387C-1.075 .687-1.077 .973-.923 1.285-.574 1.982 .061 2.141 .745 1.801 1.547 1.398 1.881 .744 1.465-.09 .952-1.116-.016-.919-.884-.483-1.889 .018-2.829 .891-2.232 2.084-2.1 2.353-1.93 2.587-1.714 2.796Z" fill="#c41230"/>
<path transform="matrix(1,0,0,-1,54.6953,36.3549)" d="M0 0-.452-1.525 .389-1.794C.397-1.697 .411-1.572 .457-1.421 .622-.865 1.099-.224 2.126-.531 2.87-.751 3.317-1.451 3.013-2.471 2.922-2.778 2.765-3.118 2.625-3.362L1.919-3.131C2.057-2.963 2.257-2.727 2.359-2.383 2.482-1.968 2.418-1.478 1.912-1.33 1.4-1.177 1.091-1.578 .955-2.031 .882-2.274 .849-2.516 .853-2.772L-1.267-2.097-.591 .174Z" fill="#c41230"/>
</g>
</g>
</svg>
